<svg xmlns="http://www.w3.org/2000/svg" xmlns:xlink="http://www.w3.org/1999/xlink" width="1024" zoomAndPan="magnify" viewBox="0 0 768 576" height="768" preserveAspectRatio="xMidYMid meet" version="1.0"><defs><g/><clipPath id="5c0c5e01b8"><path d="M 63.121094 16.019531 L 428 16.019531 L 428 382 L 63.121094 382 Z M 63.121094 16.019531 " clip-rule="nonzero"/></clipPath><clipPath id="0b265fbcce"><path d="M 310 16.019531 L 674.371094 16.019531 L 674.371094 382 L 310 382 Z M 310 16.019531 " clip-rule="nonzero"/></clipPath><clipPath id="e78b140632"><path d="M 186 194 L 551 194 L 551 559.769531 L 186 559.769531 Z M 186 194 " clip-rule="nonzero"/></clipPath></defs><path fill="#58e940" d="M 425.238281 205.707031 C 423.40625 254.714844 402.074219 298.722656 368.792969 330.175781 C 335.511719 298.722656 314.300781 254.714844 312.351562 205.707031 C 330.027344 199.855469 349.042969 196.6875 368.792969 196.6875 C 388.542969 196.6875 407.4375 199.855469 425.238281 205.707031 Z M 425.238281 205.707031 " fill-opacity="1" fill-rule="nonzero"/><g clip-path="url(#5c0c5e01b8)"><path fill="#ffffff" d="M 245.300781 381.496094 C 144.851562 381.496094 63.171875 299.574219 63.171875 198.757812 C 63.171875 97.941406 144.851562 16.019531 245.300781 16.019531 C 345.753906 16.019531 427.429688 97.941406 427.429688 198.757812 C 427.429688 299.574219 345.753906 381.496094 245.300781 381.496094 Z M 245.300781 20.164062 C 147.167969 20.164062 67.316406 100.257812 67.316406 198.757812 C 67.316406 297.257812 147.167969 377.351562 245.300781 377.351562 C 343.4375 377.351562 423.285156 297.257812 423.285156 198.757812 C 423.285156 100.257812 343.4375 20.164062 245.300781 20.164062 Z M 245.300781 20.164062 " fill-opacity="1" fill-rule="nonzero"/></g><g clip-path="url(#0b265fbcce)"><path fill="#ffffff" d="M 492.285156 381.496094 C 391.832031 381.496094 310.15625 299.574219 310.15625 198.757812 C 310.15625 97.941406 391.832031 16.019531 492.285156 16.019531 C 592.738281 16.019531 674.414062 97.941406 674.414062 198.757812 C 674.414062 299.574219 592.738281 381.496094 492.285156 381.496094 Z M 492.285156 20.164062 C 394.148438 20.164062 314.300781 100.257812 314.300781 198.757812 C 314.300781 297.257812 394.148438 377.351562 492.285156 377.351562 C 590.421875 377.351562 670.269531 297.257812 670.269531 198.757812 C 670.269531 100.257812 590.421875 20.164062 492.285156 20.164062 Z M 492.285156 20.164062 " fill-opacity="1" fill-rule="nonzero"/></g><g clip-path="url(#e78b140632)"><path fill="#ffffff" d="M 368.792969 559.96875 C 268.34375 559.96875 186.664062 478.046875 186.664062 377.230469 C 186.664062 276.414062 268.34375 194.492188 368.792969 194.492188 C 469.246094 194.492188 550.921875 276.414062 550.921875 377.230469 C 550.921875 478.046875 469.246094 559.96875 368.792969 559.96875 Z M 368.792969 198.636719 C 270.660156 198.636719 190.808594 278.730469 190.808594 377.230469 C 190.808594 475.730469 270.660156 555.824219 368.792969 555.824219 C 466.929688 555.824219 546.777344 475.730469 546.777344 377.230469 C 546.777344 278.730469 466.929688 198.636719 368.792969 198.636719 Z M 368.792969 198.636719 " fill-opacity="1" fill-rule="nonzero"/></g><g fill="#ffffff" fill-opacity="1"><g transform="translate(151.973123, 139.589618)"><g><path d="M 13 -14.71875 C 12.914062 -15.53125 12.566406 -16.160156 11.953125 -16.609375 C 11.335938 -17.066406 10.507812 -17.296875 9.46875 -17.296875 C 8.40625 -17.296875 7.585938 -17.078125 7.015625 -16.640625 C 6.441406 -16.203125 6.15625 -15.648438 6.15625 -14.984375 C 6.144531 -14.242188 6.460938 -13.679688 7.109375 -13.296875 C 7.753906 -12.921875 8.523438 -12.628906 9.421875 -12.421875 L 11.28125 -11.96875 C 12.476562 -11.707031 13.539062 -11.316406 14.46875 -10.796875 C 15.40625 -10.285156 16.140625 -9.628906 16.671875 -8.828125 C 17.203125 -8.023438 17.46875 -7.050781 17.46875 -5.90625 C 17.46875 -4.007812 16.757812 -2.5 15.34375 -1.375 C 13.9375 -0.257812 11.972656 0.296875 9.453125 0.296875 C 6.941406 0.296875 4.9375 -0.273438 3.4375 -1.421875 C 1.945312 -2.566406 1.175781 -4.253906 1.125 -6.484375 L 5.359375 -6.484375 C 5.429688 -5.453125 5.835938 -4.675781 6.578125 -4.15625 C 7.328125 -3.632812 8.269531 -3.375 9.40625 -3.375 C 10.507812 -3.375 11.390625 -3.609375 12.046875 -4.078125 C 12.710938 -4.546875 13.050781 -5.15625 13.0625 -5.90625 C 13.050781 -6.601562 12.742188 -7.140625 12.140625 -7.515625 C 11.535156 -7.898438 10.671875 -8.226562 9.546875 -8.5 L 7.296875 -9.0625 C 5.554688 -9.476562 4.179688 -10.140625 3.171875 -11.046875 C 2.171875 -11.953125 1.671875 -13.164062 1.671875 -14.6875 C 1.671875 -15.9375 2.003906 -17.03125 2.671875 -17.96875 C 3.347656 -18.90625 4.28125 -19.632812 5.46875 -20.15625 C 6.65625 -20.675781 8 -20.9375 9.5 -20.9375 C 11.03125 -20.9375 12.367188 -20.675781 13.515625 -20.15625 C 14.671875 -19.632812 15.566406 -18.90625 16.203125 -17.96875 C 16.835938 -17.03125 17.164062 -15.945312 17.1875 -14.71875 Z M 13 -14.71875 "/></g></g></g><g fill="#ffffff" fill-opacity="1"><g transform="translate(170.57435, 139.589618)"><g><path d="M 8.71875 0.296875 C 7.144531 0.296875 5.789062 -0.0351562 4.65625 -0.703125 C 3.519531 -1.367188 2.640625 -2.300781 2.015625 -3.5 C 1.398438 -4.707031 1.09375 -6.101562 1.09375 -7.6875 C 1.09375 -9.289062 1.398438 -10.691406 2.015625 -11.890625 C 2.640625 -13.085938 3.519531 -14.019531 4.65625 -14.6875 C 5.789062 -15.363281 7.144531 -15.703125 8.71875 -15.703125 C 10.28125 -15.703125 11.628906 -15.363281 12.765625 -14.6875 C 13.910156 -14.019531 14.789062 -13.085938 15.40625 -11.890625 C 16.03125 -10.691406 16.34375 -9.289062 16.34375 -7.6875 C 16.34375 -6.101562 16.03125 -4.707031 15.40625 -3.5 C 14.789062 -2.300781 13.910156 -1.367188 12.765625 -0.703125 C 11.628906 -0.0351562 10.28125 0.296875 8.71875 0.296875 Z M 8.734375 -3.03125 C 9.796875 -3.03125 10.597656 -3.472656 11.140625 -4.359375 C 11.691406 -5.242188 11.96875 -6.363281 11.96875 -7.71875 C 11.96875 -9.070312 11.691406 -10.191406 11.140625 -11.078125 C 10.597656 -11.972656 9.796875 -12.421875 8.734375 -12.421875 C 7.648438 -12.421875 6.832031 -11.972656 6.28125 -11.078125 C 5.726562 -10.191406 5.453125 -9.070312 5.453125 -7.71875 C 5.453125 -6.363281 5.726562 -5.242188 6.28125 -4.359375 C 6.832031 -3.472656 7.648438 -3.03125 8.734375 -3.03125 Z M 8.734375 -3.03125 "/></g></g></g><g fill="#ffffff" fill-opacity="1"><g transform="translate(188.005429, 139.589618)"><g><path d="M 10.1875 -15.5 L 10.1875 -12.265625 L 7.109375 -12.265625 L 7.109375 0 L 2.8125 0 L 2.8125 -12.265625 L 0.625 -12.265625 L 0.625 -15.5 L 2.8125 -15.5 L 2.8125 -16.609375 C 2.8125 -18.296875 3.289062 -19.550781 4.25 -20.375 C 5.21875 -21.207031 6.4375 -21.625 7.90625 -21.625 C 8.5625 -21.625 9.160156 -21.570312 9.703125 -21.46875 C 10.253906 -21.375 10.664062 -21.285156 10.9375 -21.203125 L 10.171875 -17.96875 C 10.003906 -18.03125 9.796875 -18.082031 9.546875 -18.125 C 9.296875 -18.175781 9.046875 -18.203125 8.796875 -18.203125 C 8.160156 -18.203125 7.71875 -18.050781 7.46875 -17.75 C 7.226562 -17.457031 7.109375 -17.050781 7.109375 -16.53125 L 7.109375 -15.5 Z M 10.1875 -15.5 "/></g></g></g><g fill="#ffffff" fill-opacity="1"><g transform="translate(199.101597, 139.589618)"><g><path d="M 9.953125 -15.5 L 9.953125 -12.265625 L 7.046875 -12.265625 L 7.046875 -4.765625 C 7.046875 -4.171875 7.175781 -3.769531 7.4375 -3.5625 C 7.707031 -3.351562 8.0625 -3.25 8.5 -3.25 C 8.695312 -3.25 8.894531 -3.265625 9.09375 -3.296875 C 9.300781 -3.335938 9.457031 -3.367188 9.5625 -3.390625 L 10.234375 -0.1875 C 10.023438 -0.125 9.722656 -0.046875 9.328125 0.046875 C 8.941406 0.140625 8.46875 0.195312 7.90625 0.21875 C 6.34375 0.28125 5.085938 -0.0546875 4.140625 -0.796875 C 3.203125 -1.546875 2.738281 -2.679688 2.75 -4.203125 L 2.75 -12.265625 L 0.625 -12.265625 L 0.625 -15.5 L 2.75 -15.5 L 2.75 -19.203125 L 7.046875 -19.203125 L 7.046875 -15.5 Z M 9.953125 -15.5 "/></g></g></g><g fill="#ffffff" fill-opacity="1"><g transform="translate(210.137249, 139.589618)"><g><path d="M 4.765625 0 L 0.5625 -15.5 L 4.90625 -15.5 L 7.296875 -5.078125 L 7.4375 -5.078125 L 9.953125 -15.5 L 14.21875 -15.5 L 16.75 -5.140625 L 16.890625 -5.140625 L 19.25 -15.5 L 23.578125 -15.5 L 19.375 0 L 14.828125 0 L 12.171875 -9.75 L 11.96875 -9.75 L 9.3125 0 Z M 4.765625 0 "/></g></g></g><g fill="#ffffff" fill-opacity="1"><g transform="translate(234.286558, 139.589618)"><g><path d="M 6.140625 0.296875 C 4.648438 0.296875 3.414062 -0.0859375 2.4375 -0.859375 C 1.46875 -1.640625 0.984375 -2.796875 0.984375 -4.328125 C 0.984375 -5.484375 1.253906 -6.390625 1.796875 -7.046875 C 2.347656 -7.710938 3.066406 -8.195312 3.953125 -8.5 C 4.835938 -8.800781 5.789062 -9 6.8125 -9.09375 C 8.15625 -9.226562 9.113281 -9.367188 9.6875 -9.515625 C 10.269531 -9.671875 10.5625 -9.992188 10.5625 -10.484375 L 10.5625 -10.546875 C 10.5625 -11.191406 10.359375 -11.6875 9.953125 -12.03125 C 9.554688 -12.382812 8.992188 -12.5625 8.265625 -12.5625 C 7.492188 -12.5625 6.878906 -12.390625 6.421875 -12.046875 C 5.960938 -11.710938 5.65625 -11.289062 5.5 -10.78125 L 1.53125 -11.09375 C 1.832031 -12.507812 2.566406 -13.628906 3.734375 -14.453125 C 4.910156 -15.285156 6.425781 -15.703125 8.28125 -15.703125 C 9.425781 -15.703125 10.5 -15.519531 11.5 -15.15625 C 12.507812 -14.789062 13.320312 -14.222656 13.9375 -13.453125 C 14.550781 -12.679688 14.859375 -11.679688 14.859375 -10.453125 L 14.859375 0 L 10.78125 0 L 10.78125 -2.15625 L 10.65625 -2.15625 C 10.28125 -1.425781 9.71875 -0.832031 8.96875 -0.375 C 8.21875 0.0703125 7.273438 0.296875 6.140625 0.296875 Z M 7.359375 -2.671875 C 8.304688 -2.671875 9.082031 -2.941406 9.6875 -3.484375 C 10.289062 -4.035156 10.59375 -4.71875 10.59375 -5.53125 L 10.59375 -7.1875 C 10.425781 -7.070312 10.164062 -6.96875 9.8125 -6.875 C 9.457031 -6.789062 9.078125 -6.71875 8.671875 -6.65625 C 8.273438 -6.59375 7.921875 -6.535156 7.609375 -6.484375 C 6.847656 -6.378906 6.238281 -6.164062 5.78125 -5.84375 C 5.320312 -5.53125 5.09375 -5.070312 5.09375 -4.46875 C 5.09375 -3.875 5.304688 -3.425781 5.734375 -3.125 C 6.160156 -2.820312 6.703125 -2.671875 7.359375 -2.671875 Z M 7.359375 -2.671875 "/></g></g></g><g fill="#ffffff" fill-opacity="1"><g transform="translate(250.769414, 139.589618)"><g><path d="M 1.71875 0 L 1.71875 -15.5 L 5.875 -15.5 L 5.875 -12.796875 L 6.046875 -12.796875 C 6.328125 -13.753906 6.796875 -14.476562 7.453125 -14.96875 C 8.117188 -15.46875 8.890625 -15.71875 9.765625 -15.71875 C 10.179688 -15.71875 10.566406 -15.664062 10.921875 -15.5625 C 11.273438 -15.457031 11.597656 -15.320312 11.890625 -15.15625 L 10.59375 -11.59375 C 10.394531 -11.695312 10.175781 -11.785156 9.9375 -11.859375 C 9.695312 -11.929688 9.425781 -11.96875 9.125 -11.96875 C 8.257812 -11.96875 7.523438 -11.671875 6.921875 -11.078125 C 6.316406 -10.484375 6.015625 -9.710938 6.015625 -8.765625 L 6.015625 0 Z M 1.71875 0 "/></g></g></g><g fill="#ffffff" fill-opacity="1"><g transform="translate(262.944943, 139.589618)"><g><path d="M 8.78125 0.296875 C 7.1875 0.296875 5.816406 -0.0234375 4.671875 -0.671875 C 3.523438 -1.316406 2.640625 -2.234375 2.015625 -3.421875 C 1.398438 -4.617188 1.09375 -6.035156 1.09375 -7.671875 C 1.09375 -9.265625 1.398438 -10.660156 2.015625 -11.859375 C 2.640625 -13.066406 3.515625 -14.007812 4.640625 -14.6875 C 5.765625 -15.363281 7.085938 -15.703125 8.609375 -15.703125 C 9.972656 -15.703125 11.203125 -15.410156 12.296875 -14.828125 C 13.398438 -14.253906 14.273438 -13.378906 14.921875 -12.203125 C 15.566406 -11.035156 15.890625 -9.578125 15.890625 -7.828125 L 15.890625 -6.640625 L 5.34375 -6.640625 C 5.34375 -5.484375 5.65625 -4.570312 6.28125 -3.90625 C 6.914062 -3.238281 7.769531 -2.90625 8.84375 -2.90625 C 9.5625 -2.90625 10.179688 -3.054688 10.703125 -3.359375 C 11.234375 -3.660156 11.609375 -4.109375 11.828125 -4.703125 L 15.796875 -4.4375 C 15.492188 -3 14.726562 -1.847656 13.5 -0.984375 C 12.269531 -0.128906 10.695312 0.296875 8.78125 0.296875 Z M 5.34375 -9.3125 L 11.84375 -9.3125 C 11.832031 -10.226562 11.535156 -10.984375 10.953125 -11.578125 C 10.367188 -12.179688 9.609375 -12.484375 8.671875 -12.484375 C 7.722656 -12.484375 6.941406 -12.171875 6.328125 -11.546875 C 5.710938 -10.929688 5.382812 -10.1875 5.34375 -9.3125 Z M 5.34375 -9.3125 "/></g></g></g><g fill="#ffffff" fill-opacity="1"><g transform="translate(132.191874, 179.339617)"><g><path d="M 8.78125 0.296875 C 7.1875 0.296875 5.816406 -0.0234375 4.671875 -0.671875 C 3.523438 -1.316406 2.640625 -2.234375 2.015625 -3.421875 C 1.398438 -4.617188 1.09375 -6.035156 1.09375 -7.671875 C 1.09375 -9.265625 1.398438 -10.660156 2.015625 -11.859375 C 2.640625 -13.066406 3.515625 -14.007812 4.640625 -14.6875 C 5.765625 -15.363281 7.085938 -15.703125 8.609375 -15.703125 C 9.972656 -15.703125 11.203125 -15.410156 12.296875 -14.828125 C 13.398438 -14.253906 14.273438 -13.378906 14.921875 -12.203125 C 15.566406 -11.035156 15.890625 -9.578125 15.890625 -7.828125 L 15.890625 -6.640625 L 5.34375 -6.640625 C 5.34375 -5.484375 5.65625 -4.570312 6.28125 -3.90625 C 6.914062 -3.238281 7.769531 -2.90625 8.84375 -2.90625 C 9.5625 -2.90625 10.179688 -3.054688 10.703125 -3.359375 C 11.234375 -3.660156 11.609375 -4.109375 11.828125 -4.703125 L 15.796875 -4.4375 C 15.492188 -3 14.726562 -1.847656 13.5 -0.984375 C 12.269531 -0.128906 10.695312 0.296875 8.78125 0.296875 Z M 5.34375 -9.3125 L 11.84375 -9.3125 C 11.832031 -10.226562 11.535156 -10.984375 10.953125 -11.578125 C 10.367188 -12.179688 9.609375 -12.484375 8.671875 -12.484375 C 7.722656 -12.484375 6.941406 -12.171875 6.328125 -11.546875 C 5.710938 -10.929688 5.382812 -10.1875 5.34375 -9.3125 Z M 5.34375 -9.3125 "/></g></g></g><g fill="#ffffff" fill-opacity="1"><g transform="translate(149.169023, 179.339617)"><g><path d="M 6.015625 -8.953125 L 6.015625 0 L 1.71875 0 L 1.71875 -15.5 L 5.8125 -15.5 L 5.8125 -12.765625 L 5.984375 -12.765625 C 6.335938 -13.660156 6.914062 -14.375 7.71875 -14.90625 C 8.519531 -15.4375 9.5 -15.703125 10.65625 -15.703125 C 12.269531 -15.703125 13.5625 -15.179688 14.53125 -14.140625 C 15.507812 -13.097656 16 -11.671875 16 -9.859375 L 16 0 L 11.703125 0 L 11.703125 -9.09375 C 11.710938 -10.039062 11.46875 -10.78125 10.96875 -11.3125 C 10.476562 -11.851562 9.804688 -12.125 8.953125 -12.125 C 8.078125 -12.125 7.367188 -11.84375 6.828125 -11.28125 C 6.285156 -10.726562 6.015625 -9.953125 6.015625 -8.953125 Z M 6.015625 -8.953125 "/></g></g></g><g fill="#ffffff" fill-opacity="1"><g transform="translate(166.832108, 179.339617)"><g><path d="M 8.703125 6.03125 C 6.609375 6.03125 4.96875 5.617188 3.78125 4.796875 C 2.59375 3.984375 1.867188 2.988281 1.609375 1.8125 L 5.59375 1.28125 C 5.757812 1.695312 6.097656 2.078125 6.609375 2.421875 C 7.117188 2.773438 7.847656 2.953125 8.796875 2.953125 C 9.734375 2.953125 10.503906 2.726562 11.109375 2.28125 C 11.722656 1.832031 12.03125 1.101562 12.03125 0.09375 L 12.03125 -2.75 L 11.84375 -2.75 C 11.5625 -2.101562 11.0625 -1.519531 10.34375 -1 C 9.632812 -0.476562 8.660156 -0.21875 7.421875 -0.21875 C 6.253906 -0.21875 5.195312 -0.488281 4.25 -1.03125 C 3.300781 -1.582031 2.546875 -2.414062 1.984375 -3.53125 C 1.421875 -4.644531 1.140625 -6.0625 1.140625 -7.78125 C 1.140625 -9.539062 1.425781 -11.003906 2 -12.171875 C 2.570312 -13.347656 3.332031 -14.226562 4.28125 -14.8125 C 5.238281 -15.40625 6.285156 -15.703125 7.421875 -15.703125 C 8.285156 -15.703125 9.007812 -15.550781 9.59375 -15.25 C 10.175781 -14.957031 10.648438 -14.597656 11.015625 -14.171875 C 11.378906 -13.742188 11.65625 -13.316406 11.84375 -12.890625 L 12 -12.890625 L 12 -15.5 L 16.265625 -15.5 L 16.265625 0.15625 C 16.265625 1.4375 15.941406 2.515625 15.296875 3.390625 C 14.648438 4.265625 13.757812 4.921875 12.625 5.359375 C 11.488281 5.804688 10.179688 6.03125 8.703125 6.03125 Z M 8.78125 -3.453125 C 9.820312 -3.453125 10.625 -3.832031 11.1875 -4.59375 C 11.757812 -5.363281 12.046875 -6.429688 12.046875 -7.796875 C 12.046875 -9.148438 11.757812 -10.234375 11.1875 -11.046875 C 10.625 -11.867188 9.820312 -12.28125 8.78125 -12.28125 C 7.71875 -12.28125 6.910156 -11.863281 6.359375 -11.03125 C 5.804688 -10.195312 5.53125 -9.117188 5.53125 -7.796875 C 5.53125 -6.460938 5.804688 -5.40625 6.359375 -4.625 C 6.921875 -3.84375 7.726562 -3.453125 8.78125 -3.453125 Z M 8.78125 -3.453125 "/></g></g></g><g fill="#ffffff" fill-opacity="1"><g transform="translate(184.817997, 179.339617)"><g><path d="M 1.71875 0 L 1.71875 -15.5 L 6.015625 -15.5 L 6.015625 0 Z M 3.875 -17.484375 C 3.238281 -17.484375 2.691406 -17.695312 2.234375 -18.125 C 1.773438 -18.550781 1.546875 -19.066406 1.546875 -19.671875 C 1.546875 -20.265625 1.773438 -20.773438 2.234375 -21.203125 C 2.691406 -21.628906 3.238281 -21.84375 3.875 -21.84375 C 4.507812 -21.84375 5.054688 -21.628906 5.515625 -21.203125 C 5.972656 -20.773438 6.203125 -20.265625 6.203125 -19.671875 C 6.203125 -19.066406 5.972656 -18.550781 5.515625 -18.125 C 5.054688 -17.695312 4.507812 -17.484375 3.875 -17.484375 Z M 3.875 -17.484375 "/></g></g></g><g fill="#ffffff" fill-opacity="1"><g transform="translate(192.544968, 179.339617)"><g><path d="M 6.015625 -8.953125 L 6.015625 0 L 1.71875 0 L 1.71875 -15.5 L 5.8125 -15.5 L 5.8125 -12.765625 L 5.984375 -12.765625 C 6.335938 -13.660156 6.914062 -14.375 7.71875 -14.90625 C 8.519531 -15.4375 9.5 -15.703125 10.65625 -15.703125 C 12.269531 -15.703125 13.5625 -15.179688 14.53125 -14.140625 C 15.507812 -13.097656 16 -11.671875 16 -9.859375 L 16 0 L 11.703125 0 L 11.703125 -9.09375 C 11.710938 -10.039062 11.46875 -10.78125 10.96875 -11.3125 C 10.476562 -11.851562 9.804688 -12.125 8.953125 -12.125 C 8.078125 -12.125 7.367188 -11.84375 6.828125 -11.28125 C 6.285156 -10.726562 6.015625 -9.953125 6.015625 -8.953125 Z M 6.015625 -8.953125 "/></g></g></g><g fill="#ffffff" fill-opacity="1"><g transform="translate(210.208053, 179.339617)"><g><path d="M 8.78125 0.296875 C 7.1875 0.296875 5.816406 -0.0234375 4.671875 -0.671875 C 3.523438 -1.316406 2.640625 -2.234375 2.015625 -3.421875 C 1.398438 -4.617188 1.09375 -6.035156 1.09375 -7.671875 C 1.09375 -9.265625 1.398438 -10.660156 2.015625 -11.859375 C 2.640625 -13.066406 3.515625 -14.007812 4.640625 -14.6875 C 5.765625 -15.363281 7.085938 -15.703125 8.609375 -15.703125 C 9.972656 -15.703125 11.203125 -15.410156 12.296875 -14.828125 C 13.398438 -14.253906 14.273438 -13.378906 14.921875 -12.203125 C 15.566406 -11.035156 15.890625 -9.578125 15.890625 -7.828125 L 15.890625 -6.640625 L 5.34375 -6.640625 C 5.34375 -5.484375 5.65625 -4.570312 6.28125 -3.90625 C 6.914062 -3.238281 7.769531 -2.90625 8.84375 -2.90625 C 9.5625 -2.90625 10.179688 -3.054688 10.703125 -3.359375 C 11.234375 -3.660156 11.609375 -4.109375 11.828125 -4.703125 L 15.796875 -4.4375 C 15.492188 -3 14.726562 -1.847656 13.5 -0.984375 C 12.269531 -0.128906 10.695312 0.296875 8.78125 0.296875 Z M 5.34375 -9.3125 L 11.84375 -9.3125 C 11.832031 -10.226562 11.535156 -10.984375 10.953125 -11.578125 C 10.367188 -12.179688 9.609375 -12.484375 8.671875 -12.484375 C 7.722656 -12.484375 6.941406 -12.171875 6.328125 -11.546875 C 5.710938 -10.929688 5.382812 -10.1875 5.34375 -9.3125 Z M 5.34375 -9.3125 "/></g></g></g><g fill="#ffffff" fill-opacity="1"><g transform="translate(227.185202, 179.339617)"><g><path d="M 8.78125 0.296875 C 7.1875 0.296875 5.816406 -0.0234375 4.671875 -0.671875 C 3.523438 -1.316406 2.640625 -2.234375 2.015625 -3.421875 C 1.398438 -4.617188 1.09375 -6.035156 1.09375 -7.671875 C 1.09375 -9.265625 1.398438 -10.660156 2.015625 -11.859375 C 2.640625 -13.066406 3.515625 -14.007812 4.640625 -14.6875 C 5.765625 -15.363281 7.085938 -15.703125 8.609375 -15.703125 C 9.972656 -15.703125 11.203125 -15.410156 12.296875 -14.828125 C 13.398438 -14.253906 14.273438 -13.378906 14.921875 -12.203125 C 15.566406 -11.035156 15.890625 -9.578125 15.890625 -7.828125 L 15.890625 -6.640625 L 5.34375 -6.640625 C 5.34375 -5.484375 5.65625 -4.570312 6.28125 -3.90625 C 6.914062 -3.238281 7.769531 -2.90625 8.84375 -2.90625 C 9.5625 -2.90625 10.179688 -3.054688 10.703125 -3.359375 C 11.234375 -3.660156 11.609375 -4.109375 11.828125 -4.703125 L 15.796875 -4.4375 C 15.492188 -3 14.726562 -1.847656 13.5 -0.984375 C 12.269531 -0.128906 10.695312 0.296875 8.78125 0.296875 Z M 5.34375 -9.3125 L 11.84375 -9.3125 C 11.832031 -10.226562 11.535156 -10.984375 10.953125 -11.578125 C 10.367188 -12.179688 9.609375 -12.484375 8.671875 -12.484375 C 7.722656 -12.484375 6.941406 -12.171875 6.328125 -11.546875 C 5.710938 -10.929688 5.382812 -10.1875 5.34375 -9.3125 Z M 5.34375 -9.3125 "/></g></g></g><g fill="#ffffff" fill-opacity="1"><g transform="translate(244.162351, 179.339617)"><g><path d="M 1.71875 0 L 1.71875 -15.5 L 5.875 -15.5 L 5.875 -12.796875 L 6.046875 -12.796875 C 6.328125 -13.753906 6.796875 -14.476562 7.453125 -14.96875 C 8.117188 -15.46875 8.890625 -15.71875 9.765625 -15.71875 C 10.179688 -15.71875 10.566406 -15.664062 10.921875 -15.5625 C 11.273438 -15.457031 11.597656 -15.320312 11.890625 -15.15625 L 10.59375 -11.59375 C 10.394531 -11.695312 10.175781 -11.785156 9.9375 -11.859375 C 9.695312 -11.929688 9.425781 -11.96875 9.125 -11.96875 C 8.257812 -11.96875 7.523438 -11.671875 6.921875 -11.078125 C 6.316406 -10.484375 6.015625 -9.710938 6.015625 -8.765625 L 6.015625 0 Z M 1.71875 0 "/></g></g></g><g fill="#ffffff" fill-opacity="1"><g transform="translate(256.33788, 179.339617)"><g><path d="M 1.71875 0 L 1.71875 -15.5 L 6.015625 -15.5 L 6.015625 0 Z M 3.875 -17.484375 C 3.238281 -17.484375 2.691406 -17.695312 2.234375 -18.125 C 1.773438 -18.550781 1.546875 -19.066406 1.546875 -19.671875 C 1.546875 -20.265625 1.773438 -20.773438 2.234375 -21.203125 C 2.691406 -21.628906 3.238281 -21.84375 3.875 -21.84375 C 4.507812 -21.84375 5.054688 -21.628906 5.515625 -21.203125 C 5.972656 -20.773438 6.203125 -20.265625 6.203125 -19.671875 C 6.203125 -19.066406 5.972656 -18.550781 5.515625 -18.125 C 5.054688 -17.695312 4.507812 -17.484375 3.875 -17.484375 Z M 3.875 -17.484375 "/></g></g></g><g fill="#ffffff" fill-opacity="1"><g transform="translate(264.064851, 179.339617)"><g><path d="M 6.015625 -8.953125 L 6.015625 0 L 1.71875 0 L 1.71875 -15.5 L 5.8125 -15.5 L 5.8125 -12.765625 L 5.984375 -12.765625 C 6.335938 -13.660156 6.914062 -14.375 7.71875 -14.90625 C 8.519531 -15.4375 9.5 -15.703125 10.65625 -15.703125 C 12.269531 -15.703125 13.5625 -15.179688 14.53125 -14.140625 C 15.507812 -13.097656 16 -11.671875 16 -9.859375 L 16 0 L 11.703125 0 L 11.703125 -9.09375 C 11.710938 -10.039062 11.46875 -10.78125 10.96875 -11.3125 C 10.476562 -11.851562 9.804688 -12.125 8.953125 -12.125 C 8.078125 -12.125 7.367188 -11.84375 6.828125 -11.28125 C 6.285156 -10.726562 6.015625 -9.953125 6.015625 -8.953125 Z M 6.015625 -8.953125 "/></g></g></g><g fill="#ffffff" fill-opacity="1"><g transform="translate(281.727936, 179.339617)"><g><path d="M 8.703125 6.03125 C 6.609375 6.03125 4.96875 5.617188 3.78125 4.796875 C 2.59375 3.984375 1.867188 2.988281 1.609375 1.8125 L 5.59375 1.28125 C 5.757812 1.695312 6.097656 2.078125 6.609375 2.421875 C 7.117188 2.773438 7.847656 2.953125 8.796875 2.953125 C 9.734375 2.953125 10.503906 2.726562 11.109375 2.28125 C 11.722656 1.832031 12.03125 1.101562 12.03125 0.09375 L 12.03125 -2.75 L 11.84375 -2.75 C 11.5625 -2.101562 11.0625 -1.519531 10.34375 -1 C 9.632812 -0.476562 8.660156 -0.21875 7.421875 -0.21875 C 6.253906 -0.21875 5.195312 -0.488281 4.25 -1.03125 C 3.300781 -1.582031 2.546875 -2.414062 1.984375 -3.53125 C 1.421875 -4.644531 1.140625 -6.0625 1.140625 -7.78125 C 1.140625 -9.539062 1.425781 -11.003906 2 -12.171875 C 2.570312 -13.347656 3.332031 -14.226562 4.28125 -14.8125 C 5.238281 -15.40625 6.285156 -15.703125 7.421875 -15.703125 C 8.285156 -15.703125 9.007812 -15.550781 9.59375 -15.25 C 10.175781 -14.957031 10.648438 -14.597656 11.015625 -14.171875 C 11.378906 -13.742188 11.65625 -13.316406 11.84375 -12.890625 L 12 -12.890625 L 12 -15.5 L 16.265625 -15.5 L 16.265625 0.15625 C 16.265625 1.4375 15.941406 2.515625 15.296875 3.390625 C 14.648438 4.265625 13.757812 4.921875 12.625 5.359375 C 11.488281 5.804688 10.179688 6.03125 8.703125 6.03125 Z M 8.78125 -3.453125 C 9.820312 -3.453125 10.625 -3.832031 11.1875 -4.59375 C 11.757812 -5.363281 12.046875 -6.429688 12.046875 -7.796875 C 12.046875 -9.148438 11.757812 -10.234375 11.1875 -11.046875 C 10.625 -11.867188 9.820312 -12.28125 8.78125 -12.28125 C 7.71875 -12.28125 6.910156 -11.863281 6.359375 -11.03125 C 5.804688 -10.195312 5.53125 -9.117188 5.53125 -7.796875 C 5.53125 -6.460938 5.804688 -5.40625 6.359375 -4.625 C 6.921875 -3.84375 7.726562 -3.453125 8.78125 -3.453125 Z M 8.78125 -3.453125 "/></g></g></g><g fill="#ffffff" fill-opacity="1"><g transform="translate(292.217069, 426.970958)"><g><path d="M 1.796875 0 L 1.796875 -20.65625 L 10.0625 -20.65625 C 12.34375 -20.65625 14.054688 -20.160156 15.203125 -19.171875 C 16.347656 -18.179688 16.921875 -16.910156 16.921875 -15.359375 C 16.921875 -14.140625 16.566406 -13.15625 15.859375 -12.40625 C 15.160156 -11.65625 14.269531 -11.160156 13.1875 -10.921875 L 13.1875 -10.71875 C 13.976562 -10.6875 14.71875 -10.460938 15.40625 -10.046875 C 16.09375 -9.640625 16.648438 -9.070312 17.078125 -8.34375 C 17.515625 -7.613281 17.734375 -6.734375 17.734375 -5.703125 C 17.734375 -4.609375 17.460938 -3.628906 16.921875 -2.765625 C 16.378906 -1.910156 15.578125 -1.234375 14.515625 -0.734375 C 13.460938 -0.242188 12.164062 0 10.625 0 Z M 6.15625 -3.578125 L 9.71875 -3.578125 C 10.945312 -3.578125 11.835938 -3.8125 12.390625 -4.28125 C 12.941406 -4.75 13.21875 -5.367188 13.21875 -6.140625 C 13.21875 -6.992188 12.914062 -7.691406 12.3125 -8.234375 C 11.707031 -8.785156 10.878906 -9.0625 9.828125 -9.0625 L 6.15625 -9.0625 Z M 6.15625 -12.015625 L 9.40625 -12.015625 C 10.300781 -12.015625 11.039062 -12.25 11.625 -12.71875 C 12.21875 -13.1875 12.515625 -13.828125 12.515625 -14.640625 C 12.515625 -15.378906 12.25 -15.976562 11.71875 -16.4375 C 11.195312 -16.894531 10.453125 -17.125 9.484375 -17.125 L 6.15625 -17.125 Z M 6.15625 -12.015625 "/></g></g></g><g fill="#ffffff" fill-opacity="1"><g transform="translate(310.989773, 426.970958)"><g><path d="M 1.71875 0 L 1.71875 -15.5 L 5.875 -15.5 L 5.875 -12.796875 L 6.046875 -12.796875 C 6.328125 -13.753906 6.796875 -14.476562 7.453125 -14.96875 C 8.117188 -15.46875 8.890625 -15.71875 9.765625 -15.71875 C 10.179688 -15.71875 10.566406 -15.664062 10.921875 -15.5625 C 11.273438 -15.457031 11.597656 -15.320312 11.890625 -15.15625 L 10.59375 -11.59375 C 10.394531 -11.695312 10.175781 -11.785156 9.9375 -11.859375 C 9.695312 -11.929688 9.425781 -11.96875 9.125 -11.96875 C 8.257812 -11.96875 7.523438 -11.671875 6.921875 -11.078125 C 6.316406 -10.484375 6.015625 -9.710938 6.015625 -8.765625 L 6.015625 0 Z M 1.71875 0 "/></g></g></g><g fill="#ffffff" fill-opacity="1"><g transform="translate(323.165302, 426.970958)"><g><path d="M 8.71875 0.296875 C 7.144531 0.296875 5.789062 -0.0351562 4.65625 -0.703125 C 3.519531 -1.367188 2.640625 -2.300781 2.015625 -3.5 C 1.398438 -4.707031 1.09375 -6.101562 1.09375 -7.6875 C 1.09375 -9.289062 1.398438 -10.691406 2.015625 -11.890625 C 2.640625 -13.085938 3.519531 -14.019531 4.65625 -14.6875 C 5.789062 -15.363281 7.144531 -15.703125 8.71875 -15.703125 C 10.28125 -15.703125 11.628906 -15.363281 12.765625 -14.6875 C 13.910156 -14.019531 14.789062 -13.085938 15.40625 -11.890625 C 16.03125 -10.691406 16.34375 -9.289062 16.34375 -7.6875 C 16.34375 -6.101562 16.03125 -4.707031 15.40625 -3.5 C 14.789062 -2.300781 13.910156 -1.367188 12.765625 -0.703125 C 11.628906 -0.0351562 10.28125 0.296875 8.71875 0.296875 Z M 8.734375 -3.03125 C 9.796875 -3.03125 10.597656 -3.472656 11.140625 -4.359375 C 11.691406 -5.242188 11.96875 -6.363281 11.96875 -7.71875 C 11.96875 -9.070312 11.691406 -10.191406 11.140625 -11.078125 C 10.597656 -11.972656 9.796875 -12.421875 8.734375 -12.421875 C 7.648438 -12.421875 6.832031 -11.972656 6.28125 -11.078125 C 5.726562 -10.191406 5.453125 -9.070312 5.453125 -7.71875 C 5.453125 -6.363281 5.726562 -5.242188 6.28125 -4.359375 C 6.832031 -3.472656 7.648438 -3.03125 8.734375 -3.03125 Z M 8.734375 -3.03125 "/></g></g></g><g fill="#ffffff" fill-opacity="1"><g transform="translate(340.596381, 426.970958)"><g><path d="M 6.140625 0.296875 C 4.648438 0.296875 3.414062 -0.0859375 2.4375 -0.859375 C 1.46875 -1.640625 0.984375 -2.796875 0.984375 -4.328125 C 0.984375 -5.484375 1.253906 -6.390625 1.796875 -7.046875 C 2.347656 -7.710938 3.066406 -8.195312 3.953125 -8.5 C 4.835938 -8.800781 5.789062 -9 6.8125 -9.09375 C 8.15625 -9.226562 9.113281 -9.367188 9.6875 -9.515625 C 10.269531 -9.671875 10.5625 -9.992188 10.5625 -10.484375 L 10.5625 -10.546875 C 10.5625 -11.191406 10.359375 -11.6875 9.953125 -12.03125 C 9.554688 -12.382812 8.992188 -12.5625 8.265625 -12.5625 C 7.492188 -12.5625 6.878906 -12.390625 6.421875 -12.046875 C 5.960938 -11.710938 5.65625 -11.289062 5.5 -10.78125 L 1.53125 -11.09375 C 1.832031 -12.507812 2.566406 -13.628906 3.734375 -14.453125 C 4.910156 -15.285156 6.425781 -15.703125 8.28125 -15.703125 C 9.425781 -15.703125 10.5 -15.519531 11.5 -15.15625 C 12.507812 -14.789062 13.320312 -14.222656 13.9375 -13.453125 C 14.550781 -12.679688 14.859375 -11.679688 14.859375 -10.453125 L 14.859375 0 L 10.78125 0 L 10.78125 -2.15625 L 10.65625 -2.15625 C 10.28125 -1.425781 9.71875 -0.832031 8.96875 -0.375 C 8.21875 0.0703125 7.273438 0.296875 6.140625 0.296875 Z M 7.359375 -2.671875 C 8.304688 -2.671875 9.082031 -2.941406 9.6875 -3.484375 C 10.289062 -4.035156 10.59375 -4.71875 10.59375 -5.53125 L 10.59375 -7.1875 C 10.425781 -7.070312 10.164062 -6.96875 9.8125 -6.875 C 9.457031 -6.789062 9.078125 -6.71875 8.671875 -6.65625 C 8.273438 -6.59375 7.921875 -6.535156 7.609375 -6.484375 C 6.847656 -6.378906 6.238281 -6.164062 5.78125 -5.84375 C 5.320312 -5.53125 5.09375 -5.070312 5.09375 -4.46875 C 5.09375 -3.875 5.304688 -3.425781 5.734375 -3.125 C 6.160156 -2.820312 6.703125 -2.671875 7.359375 -2.671875 Z M 7.359375 -2.671875 "/></g></g></g><g fill="#ffffff" fill-opacity="1"><g transform="translate(357.079237, 426.970958)"><g><path d="M 7.421875 0.25 C 6.242188 0.25 5.179688 -0.0507812 4.234375 -0.65625 C 3.285156 -1.269531 2.53125 -2.171875 1.96875 -3.359375 C 1.414062 -4.546875 1.140625 -6.003906 1.140625 -7.734375 C 1.140625 -9.503906 1.425781 -10.976562 2 -12.15625 C 2.570312 -13.34375 3.332031 -14.226562 4.28125 -14.8125 C 5.238281 -15.40625 6.285156 -15.703125 7.421875 -15.703125 C 8.285156 -15.703125 9.003906 -15.550781 9.578125 -15.25 C 10.160156 -14.957031 10.632812 -14.597656 11 -14.171875 C 11.363281 -13.742188 11.640625 -13.316406 11.828125 -12.890625 L 11.953125 -12.890625 L 11.953125 -20.65625 L 16.234375 -20.65625 L 16.234375 0 L 12 0 L 12 -2.484375 L 11.828125 -2.484375 C 11.628906 -2.046875 11.34375 -1.617188 10.96875 -1.203125 C 10.601562 -0.785156 10.128906 -0.4375 9.546875 -0.15625 C 8.960938 0.113281 8.253906 0.25 7.421875 0.25 Z M 8.78125 -3.171875 C 9.820312 -3.171875 10.625 -3.585938 11.1875 -4.421875 C 11.757812 -5.253906 12.046875 -6.363281 12.046875 -7.75 C 12.046875 -9.132812 11.757812 -10.234375 11.1875 -11.046875 C 10.625 -11.867188 9.820312 -12.28125 8.78125 -12.28125 C 7.71875 -12.28125 6.910156 -11.859375 6.359375 -11.015625 C 5.804688 -10.179688 5.53125 -9.09375 5.53125 -7.75 C 5.53125 -6.394531 5.804688 -5.289062 6.359375 -4.4375 C 6.921875 -3.59375 7.726562 -3.171875 8.78125 -3.171875 Z M 8.78125 -3.171875 "/></g></g></g><g fill="#ffffff" fill-opacity="1"><g transform="translate(375.125653, 426.970958)"><g><path d="M 1.796875 0 L 1.796875 -20.65625 L 6.09375 -20.65625 L 6.09375 -12.890625 L 6.21875 -12.890625 C 6.414062 -13.316406 6.691406 -13.742188 7.046875 -14.171875 C 7.398438 -14.597656 7.867188 -14.957031 8.453125 -15.25 C 9.046875 -15.550781 9.769531 -15.703125 10.625 -15.703125 C 11.769531 -15.703125 12.816406 -15.40625 13.765625 -14.8125 C 14.710938 -14.226562 15.472656 -13.34375 16.046875 -12.15625 C 16.617188 -10.976562 16.90625 -9.503906 16.90625 -7.734375 C 16.90625 -6.003906 16.625 -4.546875 16.0625 -3.359375 C 15.507812 -2.171875 14.757812 -1.269531 13.8125 -0.65625 C 12.863281 -0.0507812 11.800781 0.25 10.625 0.25 C 9.789062 0.25 9.082031 0.113281 8.5 -0.15625 C 7.914062 -0.4375 7.441406 -0.785156 7.078125 -1.203125 C 6.710938 -1.617188 6.425781 -2.046875 6.21875 -2.484375 L 6.03125 -2.484375 L 6.03125 0 Z M 6 -7.75 C 6 -6.363281 6.28125 -5.253906 6.84375 -4.421875 C 7.414062 -3.585938 8.222656 -3.171875 9.265625 -3.171875 C 10.316406 -3.171875 11.117188 -3.59375 11.671875 -4.4375 C 12.234375 -5.289062 12.515625 -6.394531 12.515625 -7.75 C 12.515625 -9.09375 12.238281 -10.179688 11.6875 -11.015625 C 11.132812 -11.859375 10.328125 -12.28125 9.265625 -12.28125 C 8.222656 -12.28125 7.414062 -11.867188 6.84375 -11.046875 C 6.28125 -10.234375 6 -9.132812 6 -7.75 Z M 6 -7.75 "/></g></g></g><g fill="#ffffff" fill-opacity="1"><g transform="translate(393.17207, 426.970958)"><g><path d="M 6.140625 0.296875 C 4.648438 0.296875 3.414062 -0.0859375 2.4375 -0.859375 C 1.46875 -1.640625 0.984375 -2.796875 0.984375 -4.328125 C 0.984375 -5.484375 1.253906 -6.390625 1.796875 -7.046875 C 2.347656 -7.710938 3.066406 -8.195312 3.953125 -8.5 C 4.835938 -8.800781 5.789062 -9 6.8125 -9.09375 C 8.15625 -9.226562 9.113281 -9.367188 9.6875 -9.515625 C 10.269531 -9.671875 10.5625 -9.992188 10.5625 -10.484375 L 10.5625 -10.546875 C 10.5625 -11.191406 10.359375 -11.6875 9.953125 -12.03125 C 9.554688 -12.382812 8.992188 -12.5625 8.265625 -12.5625 C 7.492188 -12.5625 6.878906 -12.390625 6.421875 -12.046875 C 5.960938 -11.710938 5.65625 -11.289062 5.5 -10.78125 L 1.53125 -11.09375 C 1.832031 -12.507812 2.566406 -13.628906 3.734375 -14.453125 C 4.910156 -15.285156 6.425781 -15.703125 8.28125 -15.703125 C 9.425781 -15.703125 10.5 -15.519531 11.5 -15.15625 C 12.507812 -14.789062 13.320312 -14.222656 13.9375 -13.453125 C 14.550781 -12.679688 14.859375 -11.679688 14.859375 -10.453125 L 14.859375 0 L 10.78125 0 L 10.78125 -2.15625 L 10.65625 -2.15625 C 10.28125 -1.425781 9.71875 -0.832031 8.96875 -0.375 C 8.21875 0.0703125 7.273438 0.296875 6.140625 0.296875 Z M 7.359375 -2.671875 C 8.304688 -2.671875 9.082031 -2.941406 9.6875 -3.484375 C 10.289062 -4.035156 10.59375 -4.71875 10.59375 -5.53125 L 10.59375 -7.1875 C 10.425781 -7.070312 10.164062 -6.96875 9.8125 -6.875 C 9.457031 -6.789062 9.078125 -6.71875 8.671875 -6.65625 C 8.273438 -6.59375 7.921875 -6.535156 7.609375 -6.484375 C 6.847656 -6.378906 6.238281 -6.164062 5.78125 -5.84375 C 5.320312 -5.53125 5.09375 -5.070312 5.09375 -4.46875 C 5.09375 -3.875 5.304688 -3.425781 5.734375 -3.125 C 6.160156 -2.820312 6.703125 -2.671875 7.359375 -2.671875 Z M 7.359375 -2.671875 "/></g></g></g><g fill="#ffffff" fill-opacity="1"><g transform="translate(409.654926, 426.970958)"><g><path d="M 6.015625 -8.953125 L 6.015625 0 L 1.71875 0 L 1.71875 -15.5 L 5.8125 -15.5 L 5.8125 -12.765625 L 5.984375 -12.765625 C 6.335938 -13.660156 6.914062 -14.375 7.71875 -14.90625 C 8.519531 -15.4375 9.5 -15.703125 10.65625 -15.703125 C 12.269531 -15.703125 13.5625 -15.179688 14.53125 -14.140625 C 15.507812 -13.097656 16 -11.671875 16 -9.859375 L 16 0 L 11.703125 0 L 11.703125 -9.09375 C 11.710938 -10.039062 11.46875 -10.78125 10.96875 -11.3125 C 10.476562 -11.851562 9.804688 -12.125 8.953125 -12.125 C 8.078125 -12.125 7.367188 -11.84375 6.828125 -11.28125 C 6.285156 -10.726562 6.015625 -9.953125 6.015625 -8.953125 Z M 6.015625 -8.953125 "/></g></g></g><g fill="#ffffff" fill-opacity="1"><g transform="translate(427.318011, 426.970958)"><g><path d="M 7.421875 0.25 C 6.242188 0.25 5.179688 -0.0507812 4.234375 -0.65625 C 3.285156 -1.269531 2.53125 -2.171875 1.96875 -3.359375 C 1.414062 -4.546875 1.140625 -6.003906 1.140625 -7.734375 C 1.140625 -9.503906 1.425781 -10.976562 2 -12.15625 C 2.570312 -13.34375 3.332031 -14.226562 4.28125 -14.8125 C 5.238281 -15.40625 6.285156 -15.703125 7.421875 -15.703125 C 8.285156 -15.703125 9.003906 -15.550781 9.578125 -15.25 C 10.160156 -14.957031 10.632812 -14.597656 11 -14.171875 C 11.363281 -13.742188 11.640625 -13.316406 11.828125 -12.890625 L 11.953125 -12.890625 L 11.953125 -20.65625 L 16.234375 -20.65625 L 16.234375 0 L 12 0 L 12 -2.484375 L 11.828125 -2.484375 C 11.628906 -2.046875 11.34375 -1.617188 10.96875 -1.203125 C 10.601562 -0.785156 10.128906 -0.4375 9.546875 -0.15625 C 8.960938 0.113281 8.253906 0.25 7.421875 0.25 Z M 8.78125 -3.171875 C 9.820312 -3.171875 10.625 -3.585938 11.1875 -4.421875 C 11.757812 -5.253906 12.046875 -6.363281 12.046875 -7.75 C 12.046875 -9.132812 11.757812 -10.234375 11.1875 -11.046875 C 10.625 -11.867188 9.820312 -12.28125 8.78125 -12.28125 C 7.71875 -12.28125 6.910156 -11.859375 6.359375 -11.015625 C 5.804688 -10.179688 5.53125 -9.09375 5.53125 -7.75 C 5.53125 -6.394531 5.804688 -5.289062 6.359375 -4.4375 C 6.921875 -3.59375 7.726562 -3.171875 8.78125 -3.171875 Z M 8.78125 -3.171875 "/></g></g></g><g fill="#ffffff" fill-opacity="1"><g transform="translate(310.814724, 466.720957)"><g><path d="M 6.015625 -8.953125 L 6.015625 0 L 1.71875 0 L 1.71875 -15.5 L 5.8125 -15.5 L 5.8125 -12.765625 L 5.984375 -12.765625 C 6.335938 -13.660156 6.914062 -14.375 7.71875 -14.90625 C 8.519531 -15.4375 9.5 -15.703125 10.65625 -15.703125 C 12.269531 -15.703125 13.5625 -15.179688 14.53125 -14.140625 C 15.507812 -13.097656 16 -11.671875 16 -9.859375 L 16 0 L 11.703125 0 L 11.703125 -9.09375 C 11.710938 -10.039062 11.46875 -10.78125 10.96875 -11.3125 C 10.476562 -11.851562 9.804688 -12.125 8.953125 -12.125 C 8.078125 -12.125 7.367188 -11.84375 6.828125 -11.28125 C 6.285156 -10.726562 6.015625 -9.953125 6.015625 -8.953125 Z M 6.015625 -8.953125 "/></g></g></g><g fill="#ffffff" fill-opacity="1"><g transform="translate(328.477809, 466.720957)"><g><path d="M 8.78125 0.296875 C 7.1875 0.296875 5.816406 -0.0234375 4.671875 -0.671875 C 3.523438 -1.316406 2.640625 -2.234375 2.015625 -3.421875 C 1.398438 -4.617188 1.09375 -6.035156 1.09375 -7.671875 C 1.09375 -9.265625 1.398438 -10.660156 2.015625 -11.859375 C 2.640625 -13.066406 3.515625 -14.007812 4.640625 -14.6875 C 5.765625 -15.363281 7.085938 -15.703125 8.609375 -15.703125 C 9.972656 -15.703125 11.203125 -15.410156 12.296875 -14.828125 C 13.398438 -14.253906 14.273438 -13.378906 14.921875 -12.203125 C 15.566406 -11.035156 15.890625 -9.578125 15.890625 -7.828125 L 15.890625 -6.640625 L 5.34375 -6.640625 C 5.34375 -5.484375 5.65625 -4.570312 6.28125 -3.90625 C 6.914062 -3.238281 7.769531 -2.90625 8.84375 -2.90625 C 9.5625 -2.90625 10.179688 -3.054688 10.703125 -3.359375 C 11.234375 -3.660156 11.609375 -4.109375 11.828125 -4.703125 L 15.796875 -4.4375 C 15.492188 -3 14.726562 -1.847656 13.5 -0.984375 C 12.269531 -0.128906 10.695312 0.296875 8.78125 0.296875 Z M 5.34375 -9.3125 L 11.84375 -9.3125 C 11.832031 -10.226562 11.535156 -10.984375 10.953125 -11.578125 C 10.367188 -12.179688 9.609375 -12.484375 8.671875 -12.484375 C 7.722656 -12.484375 6.941406 -12.171875 6.328125 -11.546875 C 5.710938 -10.929688 5.382812 -10.1875 5.34375 -9.3125 Z M 5.34375 -9.3125 "/></g></g></g><g fill="#ffffff" fill-opacity="1"><g transform="translate(345.454958, 466.720957)"><g><path d="M 9.953125 -15.5 L 9.953125 -12.265625 L 7.046875 -12.265625 L 7.046875 -4.765625 C 7.046875 -4.171875 7.175781 -3.769531 7.4375 -3.5625 C 7.707031 -3.351562 8.0625 -3.25 8.5 -3.25 C 8.695312 -3.25 8.894531 -3.265625 9.09375 -3.296875 C 9.300781 -3.335938 9.457031 -3.367188 9.5625 -3.390625 L 10.234375 -0.1875 C 10.023438 -0.125 9.722656 -0.046875 9.328125 0.046875 C 8.941406 0.140625 8.46875 0.195312 7.90625 0.21875 C 6.34375 0.28125 5.085938 -0.0546875 4.140625 -0.796875 C 3.203125 -1.546875 2.738281 -2.679688 2.75 -4.203125 L 2.75 -12.265625 L 0.625 -12.265625 L 0.625 -15.5 L 2.75 -15.5 L 2.75 -19.203125 L 7.046875 -19.203125 L 7.046875 -15.5 Z M 9.953125 -15.5 "/></g></g></g><g fill="#ffffff" fill-opacity="1"><g transform="translate(356.49061, 466.720957)"><g><path d="M 4.765625 0 L 0.5625 -15.5 L 4.90625 -15.5 L 7.296875 -5.078125 L 7.4375 -5.078125 L 9.953125 -15.5 L 14.21875 -15.5 L 16.75 -5.140625 L 16.890625 -5.140625 L 19.25 -15.5 L 23.578125 -15.5 L 19.375 0 L 14.828125 0 L 12.171875 -9.75 L 11.96875 -9.75 L 9.3125 0 Z M 4.765625 0 "/></g></g></g><g fill="#ffffff" fill-opacity="1"><g transform="translate(380.63992, 466.720957)"><g><path d="M 8.71875 0.296875 C 7.144531 0.296875 5.789062 -0.0351562 4.65625 -0.703125 C 3.519531 -1.367188 2.640625 -2.300781 2.015625 -3.5 C 1.398438 -4.707031 1.09375 -6.101562 1.09375 -7.6875 C 1.09375 -9.289062 1.398438 -10.691406 2.015625 -11.890625 C 2.640625 -13.085938 3.519531 -14.019531 4.65625 -14.6875 C 5.789062 -15.363281 7.144531 -15.703125 8.71875 -15.703125 C 10.28125 -15.703125 11.628906 -15.363281 12.765625 -14.6875 C 13.910156 -14.019531 14.789062 -13.085938 15.40625 -11.890625 C 16.03125 -10.691406 16.34375 -9.289062 16.34375 -7.6875 C 16.34375 -6.101562 16.03125 -4.707031 15.40625 -3.5 C 14.789062 -2.300781 13.910156 -1.367188 12.765625 -0.703125 C 11.628906 -0.0351562 10.28125 0.296875 8.71875 0.296875 Z M 8.734375 -3.03125 C 9.796875 -3.03125 10.597656 -3.472656 11.140625 -4.359375 C 11.691406 -5.242188 11.96875 -6.363281 11.96875 -7.71875 C 11.96875 -9.070312 11.691406 -10.191406 11.140625 -11.078125 C 10.597656 -11.972656 9.796875 -12.421875 8.734375 -12.421875 C 7.648438 -12.421875 6.832031 -11.972656 6.28125 -11.078125 C 5.726562 -10.191406 5.453125 -9.070312 5.453125 -7.71875 C 5.453125 -6.363281 5.726562 -5.242188 6.28125 -4.359375 C 6.832031 -3.472656 7.648438 -3.03125 8.734375 -3.03125 Z M 8.734375 -3.03125 "/></g></g></g><g fill="#ffffff" fill-opacity="1"><g transform="translate(398.070999, 466.720957)"><g><path d="M 1.71875 0 L 1.71875 -15.5 L 5.875 -15.5 L 5.875 -12.796875 L 6.046875 -12.796875 C 6.328125 -13.753906 6.796875 -14.476562 7.453125 -14.96875 C 8.117188 -15.46875 8.890625 -15.71875 9.765625 -15.71875 C 10.179688 -15.71875 10.566406 -15.664062 10.921875 -15.5625 C 11.273438 -15.457031 11.597656 -15.320312 11.890625 -15.15625 L 10.59375 -11.59375 C 10.394531 -11.695312 10.175781 -11.785156 9.9375 -11.859375 C 9.695312 -11.929688 9.425781 -11.96875 9.125 -11.96875 C 8.257812 -11.96875 7.523438 -11.671875 6.921875 -11.078125 C 6.316406 -10.484375 6.015625 -9.710938 6.015625 -8.765625 L 6.015625 0 Z M 1.71875 0 "/></g></g></g><g fill="#ffffff" fill-opacity="1"><g transform="translate(410.246528, 466.720957)"><g><path d="M 1.71875 0 L 1.71875 -20.65625 L 6.015625 -20.65625 L 6.015625 -9.609375 L 6.25 -9.609375 L 11.203125 -15.5 L 16.140625 -15.5 L 10.390625 -8.78125 L 16.4375 0 L 11.40625 0 L 7.171875 -6.25 L 6.015625 -4.921875 L 6.015625 0 Z M 1.71875 0 "/></g></g></g><g fill="#ffffff" fill-opacity="1"><g transform="translate(321.607692, 506.470955)"><g><path d="M 7.421875 0.25 C 6.242188 0.25 5.179688 -0.0507812 4.234375 -0.65625 C 3.285156 -1.269531 2.53125 -2.171875 1.96875 -3.359375 C 1.414062 -4.546875 1.140625 -6.003906 1.140625 -7.734375 C 1.140625 -9.503906 1.425781 -10.976562 2 -12.15625 C 2.570312 -13.34375 3.332031 -14.226562 4.28125 -14.8125 C 5.238281 -15.40625 6.285156 -15.703125 7.421875 -15.703125 C 8.285156 -15.703125 9.003906 -15.550781 9.578125 -15.25 C 10.160156 -14.957031 10.632812 -14.597656 11 -14.171875 C 11.363281 -13.742188 11.640625 -13.316406 11.828125 -12.890625 L 11.953125 -12.890625 L 11.953125 -20.65625 L 16.234375 -20.65625 L 16.234375 0 L 12 0 L 12 -2.484375 L 11.828125 -2.484375 C 11.628906 -2.046875 11.34375 -1.617188 10.96875 -1.203125 C 10.601562 -0.785156 10.128906 -0.4375 9.546875 -0.15625 C 8.960938 0.113281 8.253906 0.25 7.421875 0.25 Z M 8.78125 -3.171875 C 9.820312 -3.171875 10.625 -3.585938 11.1875 -4.421875 C 11.757812 -5.253906 12.046875 -6.363281 12.046875 -7.75 C 12.046875 -9.132812 11.757812 -10.234375 11.1875 -11.046875 C 10.625 -11.867188 9.820312 -12.28125 8.78125 -12.28125 C 7.71875 -12.28125 6.910156 -11.859375 6.359375 -11.015625 C 5.804688 -10.179688 5.53125 -9.09375 5.53125 -7.75 C 5.53125 -6.394531 5.804688 -5.289062 6.359375 -4.4375 C 6.921875 -3.59375 7.726562 -3.171875 8.78125 -3.171875 Z M 8.78125 -3.171875 "/></g></g></g><g fill="#ffffff" fill-opacity="1"><g transform="translate(339.654109, 506.470955)"><g><path d="M 8.78125 0.296875 C 7.1875 0.296875 5.816406 -0.0234375 4.671875 -0.671875 C 3.523438 -1.316406 2.640625 -2.234375 2.015625 -3.421875 C 1.398438 -4.617188 1.09375 -6.035156 1.09375 -7.671875 C 1.09375 -9.265625 1.398438 -10.660156 2.015625 -11.859375 C 2.640625 -13.066406 3.515625 -14.007812 4.640625 -14.6875 C 5.765625 -15.363281 7.085938 -15.703125 8.609375 -15.703125 C 9.972656 -15.703125 11.203125 -15.410156 12.296875 -14.828125 C 13.398438 -14.253906 14.273438 -13.378906 14.921875 -12.203125 C 15.566406 -11.035156 15.890625 -9.578125 15.890625 -7.828125 L 15.890625 -6.640625 L 5.34375 -6.640625 C 5.34375 -5.484375 5.65625 -4.570312 6.28125 -3.90625 C 6.914062 -3.238281 7.769531 -2.90625 8.84375 -2.90625 C 9.5625 -2.90625 10.179688 -3.054688 10.703125 -3.359375 C 11.234375 -3.660156 11.609375 -4.109375 11.828125 -4.703125 L 15.796875 -4.4375 C 15.492188 -3 14.726562 -1.847656 13.5 -0.984375 C 12.269531 -0.128906 10.695312 0.296875 8.78125 0.296875 Z M 5.34375 -9.3125 L 11.84375 -9.3125 C 11.832031 -10.226562 11.535156 -10.984375 10.953125 -11.578125 C 10.367188 -12.179688 9.609375 -12.484375 8.671875 -12.484375 C 7.722656 -12.484375 6.941406 -12.171875 6.328125 -11.546875 C 5.710938 -10.929688 5.382812 -10.1875 5.34375 -9.3125 Z M 5.34375 -9.3125 "/></g></g></g><g fill="#ffffff" fill-opacity="1"><g transform="translate(356.631258, 506.470955)"><g><path d="M 14.609375 -11.078125 L 10.671875 -10.828125 C 10.566406 -11.328125 10.296875 -11.753906 9.859375 -12.109375 C 9.421875 -12.472656 8.828125 -12.65625 8.078125 -12.65625 C 7.410156 -12.65625 6.847656 -12.515625 6.390625 -12.234375 C 5.929688 -11.953125 5.703125 -11.578125 5.703125 -11.109375 C 5.703125 -10.742188 5.847656 -10.429688 6.140625 -10.171875 C 6.441406 -9.921875 6.953125 -9.71875 7.671875 -9.5625 L 10.484375 -9 C 13.460938 -8.382812 14.953125 -6.984375 14.953125 -4.796875 C 14.953125 -3.785156 14.65625 -2.894531 14.0625 -2.125 C 13.46875 -1.363281 12.648438 -0.769531 11.609375 -0.34375 C 10.578125 0.0820312 9.394531 0.296875 8.0625 0.296875 C 6.007812 0.296875 4.375 -0.128906 3.15625 -0.984375 C 1.9375 -1.835938 1.226562 -3.003906 1.03125 -4.484375 L 5.25 -4.703125 C 5.382812 -4.078125 5.695312 -3.601562 6.1875 -3.28125 C 6.675781 -2.957031 7.300781 -2.796875 8.0625 -2.796875 C 8.820312 -2.796875 9.429688 -2.941406 9.890625 -3.234375 C 10.347656 -3.535156 10.582031 -3.914062 10.59375 -4.375 C 10.570312 -5.132812 9.910156 -5.644531 8.609375 -5.90625 L 5.921875 -6.453125 C 2.921875 -7.046875 1.425781 -8.519531 1.4375 -10.875 C 1.4375 -12.363281 2.035156 -13.539062 3.234375 -14.40625 C 4.429688 -15.269531 6.023438 -15.703125 8.015625 -15.703125 C 9.960938 -15.703125 11.5 -15.285156 12.625 -14.453125 C 13.757812 -13.628906 14.421875 -12.503906 14.609375 -11.078125 Z M 14.609375 -11.078125 "/></g></g></g><g fill="#ffffff" fill-opacity="1"><g transform="translate(372.589575, 506.470955)"><g><path d="M 1.71875 0 L 1.71875 -15.5 L 6.015625 -15.5 L 6.015625 0 Z M 3.875 -17.484375 C 3.238281 -17.484375 2.691406 -17.695312 2.234375 -18.125 C 1.773438 -18.550781 1.546875 -19.066406 1.546875 -19.671875 C 1.546875 -20.265625 1.773438 -20.773438 2.234375 -21.203125 C 2.691406 -21.628906 3.238281 -21.84375 3.875 -21.84375 C 4.507812 -21.84375 5.054688 -21.628906 5.515625 -21.203125 C 5.972656 -20.773438 6.203125 -20.265625 6.203125 -19.671875 C 6.203125 -19.066406 5.972656 -18.550781 5.515625 -18.125 C 5.054688 -17.695312 4.507812 -17.484375 3.875 -17.484375 Z M 3.875 -17.484375 "/></g></g></g><g fill="#ffffff" fill-opacity="1"><g transform="translate(380.316545, 506.470955)"><g><path d="M 8.703125 6.03125 C 6.609375 6.03125 4.96875 5.617188 3.78125 4.796875 C 2.59375 3.984375 1.867188 2.988281 1.609375 1.8125 L 5.59375 1.28125 C 5.757812 1.695312 6.097656 2.078125 6.609375 2.421875 C 7.117188 2.773438 7.847656 2.953125 8.796875 2.953125 C 9.734375 2.953125 10.503906 2.726562 11.109375 2.28125 C 11.722656 1.832031 12.03125 1.101562 12.03125 0.09375 L 12.03125 -2.75 L 11.84375 -2.75 C 11.5625 -2.101562 11.0625 -1.519531 10.34375 -1 C 9.632812 -0.476562 8.660156 -0.21875 7.421875 -0.21875 C 6.253906 -0.21875 5.195312 -0.488281 4.25 -1.03125 C 3.300781 -1.582031 2.546875 -2.414062 1.984375 -3.53125 C 1.421875 -4.644531 1.140625 -6.0625 1.140625 -7.78125 C 1.140625 -9.539062 1.425781 -11.003906 2 -12.171875 C 2.570312 -13.347656 3.332031 -14.226562 4.28125 -14.8125 C 5.238281 -15.40625 6.285156 -15.703125 7.421875 -15.703125 C 8.285156 -15.703125 9.007812 -15.550781 9.59375 -15.25 C 10.175781 -14.957031 10.648438 -14.597656 11.015625 -14.171875 C 11.378906 -13.742188 11.65625 -13.316406 11.84375 -12.890625 L 12 -12.890625 L 12 -15.5 L 16.265625 -15.5 L 16.265625 0.15625 C 16.265625 1.4375 15.941406 2.515625 15.296875 3.390625 C 14.648438 4.265625 13.757812 4.921875 12.625 5.359375 C 11.488281 5.804688 10.179688 6.03125 8.703125 6.03125 Z M 8.78125 -3.453125 C 9.820312 -3.453125 10.625 -3.832031 11.1875 -4.59375 C 11.757812 -5.363281 12.046875 -6.429688 12.046875 -7.796875 C 12.046875 -9.148438 11.757812 -10.234375 11.1875 -11.046875 C 10.625 -11.867188 9.820312 -12.28125 8.78125 -12.28125 C 7.71875 -12.28125 6.910156 -11.863281 6.359375 -11.03125 C 5.804688 -10.195312 5.53125 -9.117188 5.53125 -7.796875 C 5.53125 -6.460938 5.804688 -5.40625 6.359375 -4.625 C 6.921875 -3.84375 7.726562 -3.453125 8.78125 -3.453125 Z M 8.78125 -3.453125 "/></g></g></g><g fill="#ffffff" fill-opacity="1"><g transform="translate(398.302434, 506.470955)"><g><path d="M 6.015625 -8.953125 L 6.015625 0 L 1.71875 0 L 1.71875 -15.5 L 5.8125 -15.5 L 5.8125 -12.765625 L 5.984375 -12.765625 C 6.335938 -13.660156 6.914062 -14.375 7.71875 -14.90625 C 8.519531 -15.4375 9.5 -15.703125 10.65625 -15.703125 C 12.269531 -15.703125 13.5625 -15.179688 14.53125 -14.140625 C 15.507812 -13.097656 16 -11.671875 16 -9.859375 L 16 0 L 11.703125 0 L 11.703125 -9.09375 C 11.710938 -10.039062 11.46875 -10.78125 10.96875 -11.3125 C 10.476562 -11.851562 9.804688 -12.125 8.953125 -12.125 C 8.078125 -12.125 7.367188 -11.84375 6.828125 -11.28125 C 6.285156 -10.726562 6.015625 -9.953125 6.015625 -8.953125 Z M 6.015625 -8.953125 "/></g></g></g><g fill="#ffffff" fill-opacity="1"><g transform="translate(497.536093, 139.589618)"><g><path d="M 15.5 -13.984375 C 15.21875 -14.953125 14.703125 -15.707031 13.953125 -16.25 C 13.210938 -16.800781 12.285156 -17.078125 11.171875 -17.078125 C 9.585938 -17.078125 8.304688 -16.492188 7.328125 -15.328125 C 6.347656 -14.160156 5.859375 -12.5 5.859375 -10.34375 C 5.859375 -8.1875 6.335938 -6.519531 7.296875 -5.34375 C 8.265625 -4.164062 9.566406 -3.578125 11.203125 -3.578125 C 12.660156 -3.578125 13.800781 -3.953125 14.625 -4.703125 C 15.457031 -5.460938 15.890625 -6.484375 15.921875 -7.765625 L 11.484375 -7.765625 L 11.484375 -11.0625 L 20.125 -11.0625 L 20.125 -8.453125 C 20.125 -6.640625 19.738281 -5.078125 18.96875 -3.765625 C 18.207031 -2.460938 17.15625 -1.460938 15.8125 -0.765625 C 14.46875 -0.0664062 12.925781 0.28125 11.1875 0.28125 C 9.25 0.28125 7.546875 -0.144531 6.078125 -1 C 4.617188 -1.863281 3.476562 -3.085938 2.65625 -4.671875 C 1.84375 -6.253906 1.4375 -8.132812 1.4375 -10.3125 C 1.4375 -12.539062 1.863281 -14.445312 2.71875 -16.03125 C 3.570312 -17.625 4.726562 -18.835938 6.1875 -19.671875 C 7.644531 -20.515625 9.28125 -20.9375 11.09375 -20.9375 C 12.65625 -20.9375 14.066406 -20.640625 15.328125 -20.046875 C 16.597656 -19.460938 17.632812 -18.644531 18.4375 -17.59375 C 19.25 -16.550781 19.75 -15.347656 19.9375 -13.984375 Z M 15.5 -13.984375 "/></g></g></g><g fill="#ffffff" fill-opacity="1"><g transform="translate(519.143373, 139.589618)"><g><path d="M 6.15625 -20.65625 L 6.15625 0 L 1.796875 0 L 1.796875 -20.65625 Z M 6.15625 -20.65625 "/></g></g></g><g fill="#ffffff" fill-opacity="1"><g transform="translate(527.112443, 139.589618)"><g><path d="M 13 -14.71875 C 12.914062 -15.53125 12.566406 -16.160156 11.953125 -16.609375 C 11.335938 -17.066406 10.507812 -17.296875 9.46875 -17.296875 C 8.40625 -17.296875 7.585938 -17.078125 7.015625 -16.640625 C 6.441406 -16.203125 6.15625 -15.648438 6.15625 -14.984375 C 6.144531 -14.242188 6.460938 -13.679688 7.109375 -13.296875 C 7.753906 -12.921875 8.523438 -12.628906 9.421875 -12.421875 L 11.28125 -11.96875 C 12.476562 -11.707031 13.539062 -11.316406 14.46875 -10.796875 C 15.40625 -10.285156 16.140625 -9.628906 16.671875 -8.828125 C 17.203125 -8.023438 17.46875 -7.050781 17.46875 -5.90625 C 17.46875 -4.007812 16.757812 -2.5 15.34375 -1.375 C 13.9375 -0.257812 11.972656 0.296875 9.453125 0.296875 C 6.941406 0.296875 4.9375 -0.273438 3.4375 -1.421875 C 1.945312 -2.566406 1.175781 -4.253906 1.125 -6.484375 L 5.359375 -6.484375 C 5.429688 -5.453125 5.835938 -4.675781 6.578125 -4.15625 C 7.328125 -3.632812 8.269531 -3.375 9.40625 -3.375 C 10.507812 -3.375 11.390625 -3.609375 12.046875 -4.078125 C 12.710938 -4.546875 13.050781 -5.15625 13.0625 -5.90625 C 13.050781 -6.601562 12.742188 -7.140625 12.140625 -7.515625 C 11.535156 -7.898438 10.671875 -8.226562 9.546875 -8.5 L 7.296875 -9.0625 C 5.554688 -9.476562 4.179688 -10.140625 3.171875 -11.046875 C 2.171875 -11.953125 1.671875 -13.164062 1.671875 -14.6875 C 1.671875 -15.9375 2.003906 -17.03125 2.671875 -17.96875 C 3.347656 -18.90625 4.28125 -19.632812 5.46875 -20.15625 C 6.65625 -20.675781 8 -20.9375 9.5 -20.9375 C 11.03125 -20.9375 12.367188 -20.675781 13.515625 -20.15625 C 14.671875 -19.632812 15.566406 -18.90625 16.203125 -17.96875 C 16.835938 -17.03125 17.164062 -15.945312 17.1875 -14.71875 Z M 13 -14.71875 "/></g></g></g><g fill="#ffffff" fill-opacity="1"><g transform="translate(490.598593, 179.339617)"><g><path d="M 7.421875 0.25 C 6.242188 0.25 5.179688 -0.0507812 4.234375 -0.65625 C 3.285156 -1.269531 2.53125 -2.171875 1.96875 -3.359375 C 1.414062 -4.546875 1.140625 -6.003906 1.140625 -7.734375 C 1.140625 -9.503906 1.425781 -10.976562 2 -12.15625 C 2.570312 -13.34375 3.332031 -14.226562 4.28125 -14.8125 C 5.238281 -15.40625 6.285156 -15.703125 7.421875 -15.703125 C 8.285156 -15.703125 9.003906 -15.550781 9.578125 -15.25 C 10.160156 -14.957031 10.632812 -14.597656 11 -14.171875 C 11.363281 -13.742188 11.640625 -13.316406 11.828125 -12.890625 L 11.953125 -12.890625 L 11.953125 -20.65625 L 16.234375 -20.65625 L 16.234375 0 L 12 0 L 12 -2.484375 L 11.828125 -2.484375 C 11.628906 -2.046875 11.34375 -1.617188 10.96875 -1.203125 C 10.601562 -0.785156 10.128906 -0.4375 9.546875 -0.15625 C 8.960938 0.113281 8.253906 0.25 7.421875 0.25 Z M 8.78125 -3.171875 C 9.820312 -3.171875 10.625 -3.585938 11.1875 -4.421875 C 11.757812 -5.253906 12.046875 -6.363281 12.046875 -7.75 C 12.046875 -9.132812 11.757812 -10.234375 11.1875 -11.046875 C 10.625 -11.867188 9.820312 -12.28125 8.78125 -12.28125 C 7.71875 -12.28125 6.910156 -11.859375 6.359375 -11.015625 C 5.804688 -10.179688 5.53125 -9.09375 5.53125 -7.75 C 5.53125 -6.394531 5.804688 -5.289062 6.359375 -4.4375 C 6.921875 -3.59375 7.726562 -3.171875 8.78125 -3.171875 Z M 8.78125 -3.171875 "/></g></g></g><g fill="#ffffff" fill-opacity="1"><g transform="translate(508.64501, 179.339617)"><g><path d="M 6.140625 0.296875 C 4.648438 0.296875 3.414062 -0.0859375 2.4375 -0.859375 C 1.46875 -1.640625 0.984375 -2.796875 0.984375 -4.328125 C 0.984375 -5.484375 1.253906 -6.390625 1.796875 -7.046875 C 2.347656 -7.710938 3.066406 -8.195312 3.953125 -8.5 C 4.835938 -8.800781 5.789062 -9 6.8125 -9.09375 C 8.15625 -9.226562 9.113281 -9.367188 9.6875 -9.515625 C 10.269531 -9.671875 10.5625 -9.992188 10.5625 -10.484375 L 10.5625 -10.546875 C 10.5625 -11.191406 10.359375 -11.6875 9.953125 -12.03125 C 9.554688 -12.382812 8.992188 -12.5625 8.265625 -12.5625 C 7.492188 -12.5625 6.878906 -12.390625 6.421875 -12.046875 C 5.960938 -11.710938 5.65625 -11.289062 5.5 -10.78125 L 1.53125 -11.09375 C 1.832031 -12.507812 2.566406 -13.628906 3.734375 -14.453125 C 4.910156 -15.285156 6.425781 -15.703125 8.28125 -15.703125 C 9.425781 -15.703125 10.5 -15.519531 11.5 -15.15625 C 12.507812 -14.789062 13.320312 -14.222656 13.9375 -13.453125 C 14.550781 -12.679688 14.859375 -11.679688 14.859375 -10.453125 L 14.859375 0 L 10.78125 0 L 10.78125 -2.15625 L 10.65625 -2.15625 C 10.28125 -1.425781 9.71875 -0.832031 8.96875 -0.375 C 8.21875 0.0703125 7.273438 0.296875 6.140625 0.296875 Z M 7.359375 -2.671875 C 8.304688 -2.671875 9.082031 -2.941406 9.6875 -3.484375 C 10.289062 -4.035156 10.59375 -4.71875 10.59375 -5.53125 L 10.59375 -7.1875 C 10.425781 -7.070312 10.164062 -6.96875 9.8125 -6.875 C 9.457031 -6.789062 9.078125 -6.71875 8.671875 -6.65625 C 8.273438 -6.59375 7.921875 -6.535156 7.609375 -6.484375 C 6.847656 -6.378906 6.238281 -6.164062 5.78125 -5.84375 C 5.320312 -5.53125 5.09375 -5.070312 5.09375 -4.46875 C 5.09375 -3.875 5.304688 -3.425781 5.734375 -3.125 C 6.160156 -2.820312 6.703125 -2.671875 7.359375 -2.671875 Z M 7.359375 -2.671875 "/></g></g></g><g fill="#ffffff" fill-opacity="1"><g transform="translate(525.127866, 179.339617)"><g><path d="M 9.953125 -15.5 L 9.953125 -12.265625 L 7.046875 -12.265625 L 7.046875 -4.765625 C 7.046875 -4.171875 7.175781 -3.769531 7.4375 -3.5625 C 7.707031 -3.351562 8.0625 -3.25 8.5 -3.25 C 8.695312 -3.25 8.894531 -3.265625 9.09375 -3.296875 C 9.300781 -3.335938 9.457031 -3.367188 9.5625 -3.390625 L 10.234375 -0.1875 C 10.023438 -0.125 9.722656 -0.046875 9.328125 0.046875 C 8.941406 0.140625 8.46875 0.195312 7.90625 0.21875 C 6.34375 0.28125 5.085938 -0.0546875 4.140625 -0.796875 C 3.203125 -1.546875 2.738281 -2.679688 2.75 -4.203125 L 2.75 -12.265625 L 0.625 -12.265625 L 0.625 -15.5 L 2.75 -15.5 L 2.75 -19.203125 L 7.046875 -19.203125 L 7.046875 -15.5 Z M 9.953125 -15.5 "/></g></g></g><g fill="#ffffff" fill-opacity="1"><g transform="translate(536.163518, 179.339617)"><g><path d="M 6.140625 0.296875 C 4.648438 0.296875 3.414062 -0.0859375 2.4375 -0.859375 C 1.46875 -1.640625 0.984375 -2.796875 0.984375 -4.328125 C 0.984375 -5.484375 1.253906 -6.390625 1.796875 -7.046875 C 2.347656 -7.710938 3.066406 -8.195312 3.953125 -8.5 C 4.835938 -8.800781 5.789062 -9 6.8125 -9.09375 C 8.15625 -9.226562 9.113281 -9.367188 9.6875 -9.515625 C 10.269531 -9.671875 10.5625 -9.992188 10.5625 -10.484375 L 10.5625 -10.546875 C 10.5625 -11.191406 10.359375 -11.6875 9.953125 -12.03125 C 9.554688 -12.382812 8.992188 -12.5625 8.265625 -12.5625 C 7.492188 -12.5625 6.878906 -12.390625 6.421875 -12.046875 C 5.960938 -11.710938 5.65625 -11.289062 5.5 -10.78125 L 1.53125 -11.09375 C 1.832031 -12.507812 2.566406 -13.628906 3.734375 -14.453125 C 4.910156 -15.285156 6.425781 -15.703125 8.28125 -15.703125 C 9.425781 -15.703125 10.5 -15.519531 11.5 -15.15625 C 12.507812 -14.789062 13.320312 -14.222656 13.9375 -13.453125 C 14.550781 -12.679688 14.859375 -11.679688 14.859375 -10.453125 L 14.859375 0 L 10.78125 0 L 10.78125 -2.15625 L 10.65625 -2.15625 C 10.28125 -1.425781 9.71875 -0.832031 8.96875 -0.375 C 8.21875 0.0703125 7.273438 0.296875 6.140625 0.296875 Z M 7.359375 -2.671875 C 8.304688 -2.671875 9.082031 -2.941406 9.6875 -3.484375 C 10.289062 -4.035156 10.59375 -4.71875 10.59375 -5.53125 L 10.59375 -7.1875 C 10.425781 -7.070312 10.164062 -6.96875 9.8125 -6.875 C 9.457031 -6.789062 9.078125 -6.71875 8.671875 -6.65625 C 8.273438 -6.59375 7.921875 -6.535156 7.609375 -6.484375 C 6.847656 -6.378906 6.238281 -6.164062 5.78125 -5.84375 C 5.320312 -5.53125 5.09375 -5.070312 5.09375 -4.46875 C 5.09375 -3.875 5.304688 -3.425781 5.734375 -3.125 C 6.160156 -2.820312 6.703125 -2.671875 7.359375 -2.671875 Z M 7.359375 -2.671875 "/></g></g></g><g fill="#ffffff" fill-opacity="1"><g transform="translate(265.993993, 313.230707)"><g><path d="M 6.003906 0 L 6.003906 -77.207031 L 25.164062 -77.207031 C 29.800781 -77.207031 33.503906 -76.363281 36.269531 -74.679688 C 39.03125 -72.996094 41.050781 -70.566406 42.320312 -67.386719 C 43.589844 -64.210938 44.226562 -60.367188 44.226562 -55.855469 C 44.226562 -51.789062 43.511719 -48.261719 42.082031 -45.273438 C 40.652344 -42.289062 38.539062 -39.984375 35.742188 -38.363281 C 32.949219 -36.746094 29.453125 -35.933594 25.257812 -35.933594 L 16.777344 -35.933594 L 16.777344 0 Z M 16.777344 -43.65625 L 21.730469 -43.65625 C 24.84375 -43.65625 27.292969 -44.003906 29.070312 -44.703125 C 30.851562 -45.402344 32.121094 -46.625 32.882812 -48.371094 C 33.644531 -50.121094 34.027344 -52.582031 34.027344 -55.757812 C 34.027344 -59.445312 33.757812 -62.273438 33.21875 -64.242188 C 32.675781 -66.210938 31.550781 -67.578125 29.832031 -68.339844 C 28.117188 -69.105469 25.449219 -69.484375 21.828125 -69.484375 L 16.777344 -69.484375 Z M 16.777344 -43.65625 "/></g></g></g><g fill="#ffffff" fill-opacity="1"><g transform="translate(311.743384, 313.230707)"><g><path d="M 20.300781 0.761719 C 16.234375 0.761719 13.027344 -0.0625 10.675781 -1.714844 C 8.324219 -3.367188 6.65625 -5.71875 5.671875 -8.769531 C 4.6875 -11.820312 4.195312 -15.410156 4.195312 -19.539062 L 4.195312 -35.554688 C 4.195312 -39.683594 4.6875 -43.273438 5.671875 -46.324219 C 6.65625 -49.375 8.324219 -51.726562 10.675781 -53.375 C 13.027344 -55.027344 16.234375 -55.855469 20.300781 -55.855469 C 24.367188 -55.855469 27.5625 -55.027344 29.882812 -53.375 C 32.199219 -51.726562 33.851562 -49.375 34.839844 -46.324219 C 35.824219 -43.273438 36.316406 -39.683594 36.316406 -35.554688 L 36.316406 -19.539062 C 36.316406 -15.410156 35.824219 -11.820312 34.839844 -8.769531 C 33.851562 -5.71875 32.199219 -3.367188 29.882812 -1.714844 C 27.5625 -0.0625 24.367188 0.761719 20.300781 0.761719 Z M 20.300781 -6.765625 C 22.273438 -6.765625 23.652344 -7.339844 24.449219 -8.484375 C 25.242188 -9.625 25.71875 -11.136719 25.878906 -13.011719 C 26.035156 -14.886719 26.117188 -16.839844 26.117188 -18.871094 L 26.117188 -36.125 C 26.117188 -38.222656 26.035156 -40.191406 25.878906 -42.035156 C 25.71875 -43.878906 25.242188 -45.386719 24.449219 -46.5625 C 23.652344 -47.738281 22.273438 -48.324219 20.300781 -48.324219 C 18.332031 -48.324219 16.933594 -47.738281 16.109375 -46.5625 C 15.28125 -45.386719 14.789062 -43.878906 14.632812 -42.035156 C 14.472656 -40.191406 14.394531 -38.222656 14.394531 -36.125 L 14.394531 -18.871094 C 14.394531 -16.839844 14.472656 -14.886719 14.632812 -13.011719 C 14.789062 -11.136719 15.28125 -9.625 16.109375 -8.484375 C 16.933594 -7.339844 18.332031 -6.765625 20.300781 -6.765625 Z M 20.300781 -6.765625 "/></g></g></g><g fill="#ffffff" fill-opacity="1"><g transform="translate(352.250663, 313.230707)"><g><path d="M 3.050781 0 L 3.050781 -6.863281 L 19.921875 -47.46875 L 4.765625 -47.46875 L 4.765625 -55.09375 L 30.882812 -55.09375 L 30.882812 -49.5625 L 13.917969 -7.71875 L 30.5 -7.71875 L 30.5 0 Z M 3.050781 0 "/></g></g></g><g fill="#ffffff" fill-opacity="1"><g transform="translate(385.323662, 313.230707)"><g><path d="M 5.8125 0 L 5.8125 -55.09375 L 16.011719 -55.09375 L 16.011719 0 Z M 5.8125 -63.289062 L 5.8125 -73.964844 L 16.011719 -73.964844 L 16.011719 -63.289062 Z M 5.8125 -63.289062 "/></g></g></g><g fill="#ffffff" fill-opacity="1"><g transform="translate(407.149933, 313.230707)"><g><path d="M 24.878906 0.761719 C 22.90625 0.761719 21.144531 0.269531 19.585938 -0.714844 C 18.03125 -1.699219 16.679688 -2.796875 15.535156 -4.003906 L 15.535156 0 L 5.335938 0 L 5.335938 -77.207031 L 15.535156 -77.207031 L 15.535156 -50.707031 C 16.742188 -52.105469 18.1875 -53.3125 19.875 -54.328125 C 21.558594 -55.347656 23.574219 -55.855469 25.925781 -55.855469 C 28.785156 -55.855469 31.058594 -55.109375 32.742188 -53.613281 C 34.425781 -52.121094 35.679688 -50.246094 36.507812 -47.992188 C 37.332031 -45.734375 37.871094 -43.449219 38.125 -41.128906 C 38.378906 -38.808594 38.507812 -36.824219 38.507812 -35.171875 L 38.507812 -21.828125 C 38.507812 -17.949219 38.125 -14.28125 37.363281 -10.816406 C 36.601562 -7.355469 35.234375 -4.558594 33.265625 -2.429688 C 31.296875 -0.300781 28.5 0.761719 24.878906 0.761719 Z M 22.78125 -7.242188 C 24.558594 -7.242188 25.832031 -7.894531 26.59375 -9.199219 C 27.355469 -10.5 27.832031 -12.265625 28.023438 -14.488281 C 28.214844 -16.710938 28.308594 -19.160156 28.308594 -21.828125 L 28.308594 -35.171875 C 28.308594 -37.460938 28.183594 -39.570312 27.925781 -41.511719 C 27.671875 -43.449219 27.132812 -44.988281 26.308594 -46.132812 C 25.480469 -47.277344 24.179688 -47.847656 22.398438 -47.847656 C 21.066406 -47.847656 19.808594 -47.5625 18.632812 -46.992188 C 17.457031 -46.417969 16.425781 -45.785156 15.535156 -45.085938 L 15.535156 -9.722656 C 16.425781 -9.023438 17.492188 -8.433594 18.730469 -7.957031 C 19.96875 -7.480469 21.320312 -7.242188 22.78125 -7.242188 Z M 22.78125 -7.242188 "/></g></g></g><g fill="#ffffff" fill-opacity="1"><g transform="translate(449.754049, 313.230707)"><g><path d="M 6.101562 -77.207031 L 16.300781 -77.207031 L 16.300781 0 L 6.101562 0 Z M 6.101562 -77.207031 "/></g></g></g></svg>