<?xml version="1.0" encoding="utf-8" standalone="no"?>
<!DOCTYPE svg PUBLIC "-//W3C//DTD SVG 1.1//EN"
  "http://www.w3.org/Graphics/SVG/1.1/DTD/svg11.dtd">
<svg xmlns:xlink="http://www.w3.org/1999/xlink" width="460.8pt" height="345.6pt" viewBox="0 0 460.8 345.6" xmlns="http://www.w3.org/2000/svg" version="1.1">
 <metadata>
  <rdf:RDF xmlns:dc="http://purl.org/dc/elements/1.1/" xmlns:cc="http://creativecommons.org/ns#" xmlns:rdf="http://www.w3.org/1999/02/22-rdf-syntax-ns#">
   <cc:Work>
    <dc:type rdf:resource="http://purl.org/dc/dcmitype/StillImage"/>
    <dc:date>2024-05-07T18:53:54.677004</dc:date>
    <dc:format>image/svg+xml</dc:format>
    <dc:creator>
     <cc:Agent>
      <dc:title>Matplotlib v3.7.1, https://matplotlib.org/</dc:title>
     </cc:Agent>
    </dc:creator>
   </cc:Work>
  </rdf:RDF>
 </metadata>
 <defs>
  <style type="text/css">*{stroke-linejoin: round; stroke-linecap: butt}</style>
 </defs>
 <g id="figure_1">
  <g id="patch_1">
   <path d="M 0 345.6 
L 460.8 345.6 
L 460.8 0 
L 0 0 
z
" style="fill: #ffffff"/>
  </g>
  <g id="axes_1">
   <g id="LineCollection_1">
    <path d="M 115.2 295.488 
L 115.2 53.568 
L 357.12 53.568 
L 357.12 295.488 
L 139.392 271.296 
L 139.392 77.76 
L 332.928 77.76 
L 332.928 271.296 
L 163.584 247.104 
L 163.584 101.952 
L 308.736 101.952 
L 308.736 247.104 
L 187.776 222.912 
L 187.776 126.144 
L 284.544 126.144 
L 284.544 222.912 
L 211.968 198.72 
L 211.968 150.336 
L 260.352 150.336 
L 260.352 198.72 
L 236.16 174.528 
L 236.16 174.528 
L 236.16 174.528 
L 236.16 174.528 
L 260.352 150.336 
L 260.352 198.72 
L 211.968 198.72 
L 211.968 150.336 
L 284.544 126.144 
L 284.544 222.912 
L 187.776 222.912 
L 187.776 126.144 
L 308.736 101.952 
L 308.736 247.104 
L 163.584 247.104 
L 163.584 101.952 
L 332.928 77.76 
L 332.928 271.296 
L 139.392 271.296 
L 139.392 77.76 
" clip-path="url(#pb3946309c5)" style="fill: none; stroke: #000000; stroke-width: 1.5"/>
   </g>
  </g>
 </g>
 <defs>
  <clipPath id="pb3946309c5">
   <rect x="103.104" y="41.472" width="266.112" height="266.112"/>
  </clipPath>
 </defs>
</svg>
